<svg xmlns="http://www.w3.org/2000/svg" version="1.1" xmlns:xlink="http://www.w3.org/1999/xlink" xmlns:svgjs="http://svgjs.dev/svgjs" width="100%" height="100%" viewBox="0 0 1000 600"><rect width="1000" height="600" x="0" y="0" fill="#000000"/><g><rect width="333.3333333333333" height="333.3333333333333" rx="13.333333333333334" ry="13.333333333333334" y="202.32611792122572" fill="#ff0000" transform="matrix(0.6940438969209258,0,0,0.6940438969209258,-3.0268411273339773,43.90281480204253)" x="194.358154296875"/><path d="M238.49687393336737 294.19879987069015L282.3461960144542 410.3259306975147L327.69640093187354 294.19879987069015Q332.1401912904266 294.4048033972456 337.0254177773128 294.4048033972456Q341.91064426419894 294.4048033972456 345.29498791475265 294.4048033972456L345.29498791475265 294.4048033972456Q346.9724452024184 294.4048033972456 351.5339518618603 294.316516171579Q356.09545852130225 294.19879987069015 361.5104083621881 294.19879987069015Q366.8959291278518 294.19879987069015 371.4574357872938 294.0810835698013Q376.01894244673565 293.9927963441347 377.6963997344013 293.9927963441347L377.6963997344013 293.9927963441347Q378.3438393892899 297.17113646813294 377.6963997344013 300.55548011868666L377.6963997344013 300.55548011868666L377.28439268129046 300.55548011868666Q367.54336878274034 301.61492682668603 363.09957842418726 302.5566572337966Q358.6263589904119 303.52781671612945 357.68462858330133 306.7944440657943Q356.7428981761907 310.09050049068134 356.7428981761907 317.5066274466772L356.7428981761907 317.5066274466772L358.4203554638565 416.4471783437335Q358.4203554638565 423.03929119350767 358.86179159218955 426.83564189717225Q359.2737986453005 430.66142167605904 361.18668853474384 432.3388789637247Q363.09957842418726 434.0457653266127 367.33736525618485 434.78149220716784Q371.57515208818256 435.517219087723 379.4032860972893 436.16465874261155L379.4032860972893 436.16465874261155Q380.05072575217787 439.3429988666098 379.4032860972893 442.72734251716344L379.4032860972893 442.72734251716344Q377.6963997344013 442.72734251716344 373.16432215018165 442.6390552914968Q368.6028154907398 442.521338990608 363.18786564985385 442.521338990608Q357.8023448841902 442.521338990608 353.24083822474825 442.4036226897192Q348.67933156530637 442.31533546405257 346.9724452024184 442.31533546405257L346.9724452024184 442.31533546405257Q345.29498791475265 442.31533546405257 340.8511975561995 442.4036226897192Q336.3779781224242 442.521338990608 331.0807445824272 442.521338990608Q325.7835110424301 442.521338990608 321.3397206838771 442.6390552914968Q316.8959303253239 442.72734251716344 315.189043962436 442.72734251716344L315.189043962436 442.72734251716344Q314.9830404358805 439.5490023931652 315.189043962436 436.16465874261155L315.189043962436 436.16465874261155L315.6304800907691 436.16465874261155Q324.9594969362083 435.1052120346121 329.19728376820603 434.1634816275015Q333.4350706002037 433.19232214516876 334.37680100731427 429.9256947955039Q335.31853141442485 426.6296383706168 335.31853141442485 419.21351141462094L335.31853141442485 419.21351141462094L333.4350706002037 305.64671013212825L280.0212990718999 442.31533546405257Q278.5498453107896 442.93334604371887 275.37150518679135 443.16877864549656Q272.1931650627931 443.37478217205194 269.8682681202389 443.37478217205194L269.8682681202389 443.37478217205194L219.63283671593337 310.09050049068134L216.2484930653797 419.21351141462094Q216.04248953882424 426.21763131750595 216.8959327202682 429.27825514061533Q217.71994682648997 432.3388789637247 221.95773365848763 433.6337582735018Q226.19552049048528 434.89920850805663 236.1719769908131 436.16465874261155L236.1719769908131 436.16465874261155Q237.02542017225707 439.5490023931652 236.1719769908131 442.72734251716344L236.1719769908131 442.72734251716344Q234.05308357481425 442.72734251716344 228.84413726048382 442.6390552914968Q223.66462002137558 442.521338990608 218.48510278226735 442.4036226897192Q213.2761564679369 442.31533546405257 210.95125952538262 442.31533546405257L210.95125952538262 442.31533546405257Q209.68580929082776 442.31533546405257 205.97774581282982 442.4036226897192Q202.26968233483188 442.521338990608 197.82589197627877 442.521338990608Q193.35267254250348 442.521338990608 189.64460906450554 442.6390552914968Q185.93654558650758 442.72734251716344 184.67109535195274 442.72734251716344L184.67109535195274 442.72734251716344Q184.25908829884185 439.3429988666098 184.67109535195274 436.16465874261155L184.67109535195274 436.16465874261155Q194.64755185228054 434.89920850805663 198.8853386842782 433.6337582735018Q203.12312551627585 432.3388789637247 204.27085944994187 428.5425282600602Q205.4480224588301 424.71674848117345 205.65402598538554 416.4471783437335L205.65402598538554 416.4471783437335L209.68580929082776 317.5066274466772Q210.09781634393866 310.09050049068134 209.03836963593923 306.9121603666831Q207.97892292793983 303.7338202426849 203.4174162684979 302.5566572337966Q198.8853386842782 301.4089233001306 188.4968751308395 300.55548011868666L188.4968751308395 300.55548011868666Q188.29087160428406 297.17113646813294 188.4968751308395 293.9927963441347L188.4968751308395 293.9927963441347Q195.70699856027994 293.9927963441347 203.32912904283128 294.19879987069015Q210.95125952538262 294.4048033972456 220.2802763708219 294.4048033972456L220.2802763708219 294.4048033972456Q223.45861649482015 294.4048033972456 228.7558500348172 294.4048033972456Q234.05308357481425 294.4048033972456 238.49687393336737 294.19879987069015L238.49687393336737 294.19879987069015ZM451.4456622412494 443.9927927517183L451.4456622412494 443.9927927517183L405.68345027071916 323.2158680397852Q402.91711719983186 315.59373755723385 400.9159400847218 311.3559507252362Q398.88533389438965 307.11816389323855 396.56043695183536 304.99927047723975Q394.23554000928107 302.8803770612409 390.5274765312831 302.14465018068574Q386.8194130532852 301.4089233001306 380.6687363318441 300.76148364524204L380.6687363318441 300.76148364524204Q380.05072575217787 297.3771399946884 380.6687363318441 293.9927963441347L380.6687363318441 293.9927963441347Q388.08486328784005 293.9927963441347 396.23671712439113 294.19879987069015Q404.41800003616436 294.4048033972456 412.0401305187156 294.4048033972456L412.0401305187156 294.4048033972456Q416.6899244038242 294.4048033972456 422.7228848243765 294.316516171579Q428.78527432015085 294.19879987069015 434.8182347407031 294.0810835698013Q440.8511951612553 293.9927963441347 445.50098904636377 293.9927963441347L445.50098904636377 293.9927963441347Q446.1484287012523 297.17113646813294 445.50098904636377 300.76148364524204L445.50098904636377 300.76148364524204Q434.28851138670336 301.61492682668603 429.8447210281503 302.8803770612409Q425.37150159437493 304.14582729579575 425.37150159437493 307.97160707468254L425.37150159437493 307.97160707468254Q425.37150159437493 309.44306083579283 426.13665755015234 311.6796705526805Q426.8723844307075 313.9162802695681 427.9318311387069 316.8591877917887L427.9318311387069 316.8591877917887L464.1590227372424 413.91627787462386L499.53277115433394 320.6849675706755Q501.03365399066644 316.6531842652333 501.8870971721104 313.7985639686793Q502.7111112783321 310.94394367212533 502.7111112783321 309.03105378268197L502.7111112783321 309.03105378268197Q502.7111112783321 304.79326695068426 498.3850372206678 303.20409688868517Q494.0295340877814 301.61492682668603 482.16961677323235 300.76148364524204L482.16961677323235 300.76148364524204Q481.5221771183438 297.17113646813294 482.16961677323235 293.9927963441347L482.16961677323235 293.9927963441347Q485.34795689723063 293.9927963441347 491.4986336186717 294.0810835698013Q497.6493103401128 294.19879987069015 503.77055798633154 294.316516171579Q509.9212347077726 294.4048033972456 513.0995748317707 294.4048033972456L513.0995748317707 294.4048033972456Q519.8976912081005 294.4048033972456 525.2832119737641 294.19879987069015Q530.6981618146499 293.9927963441347 537.2608455892018 293.9927963441347L537.2608455892018 293.9927963441347Q537.9082852440904 297.3771399946884 537.2608455892018 300.76148364524204L537.2608455892018 300.76148364524204Q531.1101688677609 301.4089233001306 527.1961018632073 302.0269338797969Q523.282034858654 302.67437353468546 520.5157017877666 304.79326695068426Q517.7787977921016 306.9121603666831 515.3361845486584 311.473667026125Q512.8935713052153 316.0351736855669 509.7152311812171 324.2753147477846L509.7152311812171 324.2753147477846L462.8935725026875 442.31533546405257Q460.3332429583556 443.16877864549656 457.0666156086907 443.58078569860743Q453.77055918380364 443.9927927517183 451.4456622412494 443.9927927517183Z " fill="#000000" transform="matrix(0.6940438969209258,0,0,0.6940438969209258,-3.0268411273339773,43.90281480204253)"/><path d="M648.8961011642176 302.1611145199585L679.6304240806439 383.555502592588L711.416727177431 302.1611145199585Q714.5314135937937 302.3055039564787 717.9555059455566 302.3055039564787Q721.3795982973195 302.3055039564787 723.7517104687215 302.3055039564787L723.7517104687215 302.3055039564787Q724.9274530232425 302.3055039564787 728.1246476890453 302.2436227693986Q731.3218423548481 302.1611145199585 735.1172218290912 302.1611145199585Q738.8919742409745 302.1611145199585 742.0891689067772 302.07860627051843Q745.28636357258 302.01672508343836 746.4621061271009 302.01672508343836L746.4621061271009 302.01672508343836Q746.9159014990213 304.2444478183203 746.4621061271009 306.6165599897223L746.4621061271009 306.6165599897223L746.1733272540607 306.6165599897223Q739.3457696128949 307.3591342346829 736.2310831965322 308.0192002302035Q733.0957697178095 308.6998932880841 732.435703722289 310.98949721004607Q731.7756377267684 313.299728194368 731.7756377267684 318.4977479090924L731.7756377267684 318.4977479090924L732.9513802812894 387.84593156347165Q732.9513802812894 392.4663935321156 733.2607862166897 395.1272845765579Q733.5495650897299 397.80880268336017 734.890324143131 398.98454523788115Q736.2310831965322 400.1809148547622 739.2013801763748 400.69659141376263Q742.1716771562172 401.2122679727631 747.658475743982 401.6660633446835L747.658475743982 401.6660633446835Q748.1122711159023 403.89378607956536 747.658475743982 406.2658982509674L747.658475743982 406.2658982509674Q746.4621061271009 406.2658982509674 743.2855385236583 406.20401706388736Q740.0883438578555 406.1215088144472 736.2929643836122 406.1215088144472Q732.518211971729 406.1215088144472 729.3210173059263 406.0390005650072Q726.1238226401235 405.9771193779271 724.9274530232425 405.9771193779271L724.9274530232425 405.9771193779271Q723.7517104687215 405.9771193779271 720.6370240523589 406.0390005650072Q717.5017105736363 406.1215088144472 713.788839348833 406.1215088144472Q710.0759681240298 406.1215088144472 706.9612817076672 406.20401706388736Q703.8465952913045 406.2658982509674 702.6502256744235 406.2658982509674L702.6502256744235 406.2658982509674Q702.5058362379034 404.0381755160855 702.6502256744235 401.6660633446835L702.6502256744235 401.6660633446835L702.9596316098238 401.6660633446835Q709.4984103779493 400.9234890997228 712.4687073577919 400.2634231042023Q715.4390043376344 399.5827300463217 716.099070333155 397.29312612435973Q716.7591363286756 394.9828951400377 716.7591363286756 389.7848754253133L716.7591363286756 389.7848754253133L715.4390043376344 310.18504177800537L678.0008861542025 405.9771193779271Q676.9695330362016 406.41028768748754 674.7418103013197 406.57530418636765Q672.5140875664379 406.7196936228878 670.8845496399964 406.7196936228878L670.8845496399964 406.7196936228878L635.6741541914464 313.299728194368L633.3020420200444 389.7848754253133Q633.1576525835242 394.6941162669975 633.7558373919646 396.8393307524393Q634.3333951380453 398.98454523788115 637.3036921178877 399.89213598172194Q640.2739890977302 400.7790996632027 647.2665632377763 401.6660633446835L647.2665632377763 401.6660633446835Q647.8647480462167 404.0381755160855 647.2665632377763 406.2658982509674L647.2665632377763 406.2658982509674Q645.781414747855 406.2658982509674 642.1304247101318 406.20401706388736Q638.5000617347687 406.1215088144472 634.8696987594057 406.0390005650072Q631.2187087216826 405.9771193779271 629.5891707952412 405.9771193779271L629.5891707952412 405.9771193779271Q628.7022071137603 405.9771193779271 626.1031972563982 406.0390005650072Q623.504187399036 406.1215088144472 620.3895009826733 406.1215088144472Q617.2541875039506 406.1215088144472 614.6551776465884 406.20401706388736Q612.0561677892262 406.2658982509674 611.1692041077454 406.2658982509674L611.1692041077454 406.2658982509674Q610.8804252347052 403.89378607956536 611.1692041077454 401.6660633446835L611.1692041077454 401.6660633446835Q618.1617782477914 400.7790996632027 621.132075227634 399.89213598172194Q624.1023722074765 398.98454523788115 624.9068276395171 396.32365419343887Q625.7319101339178 393.6421360866366 625.876299570438 387.84593156347165L625.876299570438 387.84593156347165L628.7022071137603 318.4977479090924Q628.9909859868006 313.299728194368 628.2484117418401 311.07200545948615Q627.5058374968794 308.8442827246042 624.3086428310767 308.0192002302035Q621.132075227634 307.2147447981628 613.8507222145477 306.6165599897223L613.8507222145477 306.6165599897223Q613.7063327780276 304.2444478183203 613.8507222145477 302.01672508343836L613.8507222145477 302.01672508343836Q618.904352492752 302.01672508343836 624.2467616439966 302.1611145199585Q629.5891707952412 302.3055039564787 636.1279495633667 302.3055039564787L636.1279495633667 302.3055039564787Q638.3556722982487 302.3055039564787 642.0685435230519 302.3055039564787Q645.781414747855 302.3055039564787 648.8961011642176 302.1611145199585L648.8961011642176 302.1611145199585ZM765.9340529949576 443.99279530743956L765.9340529949576 443.99279530743956Q761.9117758347542 443.99279530743956 759.7665613493123 441.6825643231176Q757.6007198015104 439.3929604011557 757.6007198015104 436.27827398479303L757.6007198015104 436.27827398479303Q757.6007198015104 432.11160738806944 762.0561652712743 428.1718384773061Q766.511610741038 424.2320695665427 776.6188712974467 424.2320695665427L776.6188712974467 424.2320695665427Q778.5578151592883 420.8286042771398 780.4142507716899 416.88883536637644Q782.2706863840915 412.9490664556131 784.7871879920137 407.15286193244816L784.7871879920137 407.15286193244816Q783.1576500655723 403.0068223980846 780.6205213952901 396.468043629959Q778.104019787368 389.9292648618334 774.9068251215652 381.98784585322664Q771.7096304557625 374.0464268446199 768.4505546028797 365.5068230275726Q765.1914787499969 356.9672192105253 762.0561652712743 348.94329195247843L762.0561652712743 348.94329195247843Q760.2822379083127 344.1990676096744 758.1370234228709 342.4045131843529Q755.9711818750691 340.6305858213914 749.8861984788639 340.03240101295086L749.8861984788639 340.03240101295086Q749.4324031069435 337.9490677145891 749.8861984788639 335.4325661066669L749.8861984788639 335.4325661066669Q754.1972545121075 335.4325661066669 758.6526999818714 335.576955543187Q763.1081454516352 335.72134497970717 767.8523697944393 335.72134497970717L767.8523697944393 335.72134497970717Q772.1634258276829 335.72134497970717 777.2170561058872 335.576955543187Q782.2706863840915 335.4325661066669 785.8185411100146 335.4325661066669L785.8185411100146 335.4325661066669Q786.1279470454148 337.66028884154883 785.8185411100146 340.03240101295086L785.8185411100146 340.03240101295086Q780.7855378941703 340.3211798859911 778.7640857828885 341.06375413095174Q776.7632607339668 341.80632837591236 776.7632607339668 344.0340511107943L776.7632607339668 344.0340511107943Q776.7632607339668 346.11738440915605 778.2484092238881 350.42844044239973L778.2484092238881 350.42844044239973Q782.1056698852113 360.9688693083687 785.7566599229345 369.87976024789634Q789.3870228982976 378.7906511874239 793.0998941231007 388.1553374988719L793.0998941231007 388.1553374988719Q797.8647455282648 377.3055026975027 801.495108503628 368.7040176933753Q805.125471478991 360.081905626888 808.8383427037942 350.71721931543993L808.8383427037942 350.71721931543993Q810.4885076925956 346.4267903445563 810.4885076925956 344.34345704619454L810.4885076925956 344.34345704619454Q810.4885076925956 342.2601237478327 808.2607849577137 341.373160066352Q806.0330622228319 340.4861963848712 800.381247136187 340.03240101295086L800.381247136187 340.03240101295086Q799.9274517642666 337.66028884154883 800.381247136187 335.4325661066669L800.381247136187 335.4325661066669Q804.0941183609901 335.4325661066669 808.0338872717535 335.576955543187Q811.9736561825168 335.72134497970717 816.4291016522807 335.72134497970717L816.4291016522807 335.72134497970717Q819.3993986321232 335.72134497970717 822.8853721709662 335.576955543187Q826.3713457098091 335.4325661066669 829.1972532531315 335.4325661066669L829.1972532531315 335.4325661066669Q829.6304215626919 337.66028884154883 829.1972532531315 340.03240101295086L829.1972532531315 340.03240101295086Q822.9472533580463 340.4861963848712 820.7195306231642 342.77580030683316Q818.4918078882824 345.08603129115517 816.5734910888008 349.68586619743905L816.5734910888008 349.68586619743905L791.1815773236192 408.94741635776967Q790.4390030786585 410.72134372073117 788.5000592168168 414.9498915045348Q786.5611153549752 419.19906635069844 784.4159008695333 423.71639300754225Q782.2706863840915 428.2543467267461 780.7855378941703 431.2246437065887L780.7855378941703 431.2246437065887Q777.0726666693671 438.5059967196749 773.504184881084 441.24939601355726Q769.935703092801 443.99279530743956 765.9340529949576 443.99279530743956ZM904.9398262391162 407.15286193244816L904.9398262391162 407.15286193244816L872.8647442692888 322.4993980069359Q870.9258004074472 317.1569888556913 869.523160166966 314.1866918758488Q868.0998928641247 311.21639489600625 866.4703549376834 309.731246406085Q864.840817011242 308.2460979161637 862.2418071538798 307.73042135716327Q859.6427972965175 307.2147447981628 855.3317412632739 306.7609494262424L855.3317412632739 306.7609494262424Q854.8779458913535 304.3888372548404 855.3317412632739 302.01672508343836L855.3317412632739 302.01672508343836Q860.5297609779983 302.01672508343836 866.2434572517232 302.1611145199585Q871.9571535254481 302.3055039564787 877.3201897390527 302.3055039564787L877.3201897390527 302.3055039564787Q880.5792655919355 302.3055039564787 884.807813375739 302.2436227693986Q889.0363611595426 302.1611145199585 893.2855360057063 302.07860627051843Q897.5140837895099 302.01672508343836 900.7731596423927 302.01672508343836L900.7731596423927 302.01672508343836Q901.226955014313 304.2444478183203 900.7731596423927 306.7609494262424L900.7731596423927 306.7609494262424Q892.914248883226 307.3591342346829 889.7789354045033 308.2460979161637Q886.6642489881406 309.1330615976444 886.6642489881406 311.81457970444677L886.6642489881406 311.81457970444677Q886.6642489881406 312.84593282244765 887.179925547141 314.413589561809Q887.7162291685015 315.9812463011703 888.4588034134622 318.04395253717206L888.4588034134622 318.04395253717206L913.8507171786439 386.07200420051015L938.6444461353851 320.72547064397435Q939.696426315746 317.89956310065196 940.2739840618265 315.8987380517302Q940.8721688702669 313.89791300280854 940.8721688702669 312.5571539494074L940.8721688702669 312.5571539494074Q940.8721688702669 309.58685696956485 937.8399907033444 308.4729956021239Q934.7871854740617 307.3591342346829 926.4744793429746 306.7609494262424L926.4744793429746 306.7609494262424Q926.0206839710543 304.2444478183203 926.4744793429746 302.01672508343836L926.4744793429746 302.01672508343836Q928.7022020778566 302.01672508343836 933.0132581111002 302.07860627051843Q937.3036870819839 302.1611145199585 941.6147431152276 302.2436227693986Q945.9257991484712 302.3055039564787 948.153521883353 302.3055039564787L948.153521883353 302.3055039564787Q952.8977462261572 302.3055039564787 956.6931257004005 302.1611145199585Q960.4885051746437 302.01672508343836 965.0883400809277 302.01672508343836L965.0883400809277 302.01672508343836Q965.521508390488 304.3888372548404 965.0883400809277 306.7609494262424L965.0883400809277 306.7609494262424Q960.7772840476839 307.2147447981628 958.0338847538015 307.6479131077232Q955.2904854599192 308.10170847964355 953.3515415980776 309.58685696956485Q951.412597736236 311.07200545948615 949.7211786227144 314.2692001252888Q948.0091324468331 317.46639479109155 945.781409711951 323.24197225189647L945.781409711951 323.24197225189647L912.9637534971631 405.9771193779271Q911.1691990718416 406.57530418636765 908.8795951498796 406.8640830594079Q906.5693641655577 407.15286193244816 904.9398262391162 407.15286193244816ZM1000.5875144025179 406.2658982509674L1000.5875144025179 406.2658982509674Q996.4208478057944 406.2658982509674 991.9654023360306 406.1215088144472Q987.5099568662667 405.9771193779271 982.3119371515422 405.9771193779271L982.3119371515422 405.9771193779271Q977.5677128087382 405.9771193779271 972.7409802164941 406.1215088144472Q967.91424762425 406.2658982509674 963.4588021544862 406.2658982509674L963.4588021544862 406.2658982509674Q963.0050067825659 403.89378607956536 963.4588021544862 401.6660633446835L963.4588021544862 401.6660633446835Q968.4918053703306 401.3772844716432 970.8845446040925 400.69659141376263Q973.2566567754945 400.03652541824204 973.9992310204552 397.80880268336017Q974.7418052654159 395.58107994847825 974.7418052654159 390.6718391067941L974.7418052654159 390.6718391067941L974.7418052654159 357.40038752008564Q974.7418052654159 351.6248100592807 974.2880098934954 348.79890251595833Q973.8548415839351 345.9729949726359 971.5446105996132 344.859133605195Q969.2343796152911 343.745272237754 963.6031915910064 343.0026979927934L963.6031915910064 343.0026979927934Q963.1493962190859 340.9193646944316 963.6031915910064 339.1454373314701L963.6031915910064 339.1454373314701Q970.1419703591318 337.9490677145891 976.0825643188169 336.17514035162753Q982.023158278502 334.380585926306 987.5099568662667 332.31787969030427L987.5099568662667 332.31787969030427L990.026458474189 333.204843371785Q989.8820690376688 337.80467827806893 989.8201878505888 341.80632837591236Q989.7376796011486 345.8286055361158 989.7376796011486 349.39708732439885L989.7376796011486 349.39708732439885L989.7376796011486 389.1866906168728Q989.7376796011486 394.9828951400377 990.3977455966692 397.4993967479599Q991.0784386545498 400.03652541824204 993.3680425765118 400.69659141376263Q995.6782735608338 401.3772844716432 1000.5875144025179 401.6660633446835L1000.5875144025179 401.6660633446835Q1001.0206827120783 403.89378607956536 1000.5875144025179 406.2658982509674ZM970.8845446040925 307.07035536164267L970.8845446040925 307.07035536164267Q970.8845446040925 302.75929932839904 973.9167227710152 299.7890023485565Q976.9695280002977 296.81870536871395 981.2805840335415 296.81870536871395L981.2805840335415 296.81870536871395Q985.4266235679049 296.81870536871395 988.4794287971877 299.7890023485565Q991.5116069641101 302.75929932839904 991.5116069641101 306.90533886276256L991.5116069641101 306.90533886276256Q991.5116069641101 310.7832265864459 988.5413099842676 313.95979418988856Q985.5710130044251 317.1569888556913 980.9711780981411 317.1569888556913L980.9711780981411 317.1569888556913Q976.8251385637777 317.1569888556913 973.8548415839351 314.1866918758488Q970.8845446040925 311.21639489600625 970.8845446040925 307.07035536164267ZM1054.1972494762038 406.2658982509674L1054.1972494762038 406.2658982509674Q1053.8878435408033 403.89378607956536 1054.1972494762038 401.6660633446835L1054.1972494762038 401.6660633446835Q1058.7970843824878 401.3772844716432 1061.0248071173696 400.69659141376263Q1063.2525298522514 400.03652541824204 1063.995104097212 397.80880268336017Q1064.7376783421728 395.58107994847825 1064.7376783421728 390.6718391067941L1064.7376783421728 390.6718391067941L1064.7376783421728 360.68009043532845Q1064.7376783421728 351.7691994958009 1061.9942790482903 347.3756352131171Q1059.250879754408 343.0026979927934 1051.082563059841 343.0026979927934L1051.082563059841 343.0026979927934Q1046.7715070265974 343.0026979927934 1042.749229866394 344.5703547321547Q1038.7475797685506 346.11738440915605 1034.0033554257466 350.42844044239973L1034.0033554257466 350.42844044239973L1034.0033554257466 389.1866906168728Q1034.0033554257466 394.9828951400377 1034.663421421267 397.4993967479599Q1035.3234874167874 400.03652541824204 1037.5512101516695 400.69659141376263Q1039.7789328865515 401.3772844716432 1044.5437842917154 401.6660633446835L1044.5437842917154 401.6660633446835Q1044.8325631647558 403.89378607956536 1044.5437842917154 406.2658982509674L1044.5437842917154 406.2658982509674Q1040.377117694992 406.2658982509674 1035.8597910381482 406.1215088144472Q1031.3218373189443 405.9771193779271 1026.1238176042198 405.9771193779271L1026.1238176042198 405.9771193779271Q1021.3795932614157 405.9771193779271 1016.7591312927717 406.1215088144472Q1012.1592963864878 406.2658982509674 1007.7038509167239 406.2658982509674L1007.7038509167239 406.2658982509674Q1007.2706826071636 403.89378607956536 1007.7038509167239 401.6660633446835L1007.7038509167239 401.6660633446835Q1012.7574811949282 401.3772844716432 1015.1295933663303 400.69659141376263Q1017.5017055377323 400.03652541824204 1018.244279782693 397.80880268336017Q1018.9868540276536 395.58107994847825 1018.9868540276536 390.6718391067941L1018.9868540276536 390.6718391067941L1018.9868540276536 357.40038752008564Q1018.9868540276536 351.6248100592807 1018.4711774686532 348.79890251595833Q1017.9555009096528 345.9729949726359 1015.6452699253307 344.859133605195Q1013.3556660033689 343.745272237754 1007.8482403532441 343.0026979927934L1007.8482403532441 343.0026979927934Q1007.4150720436837 340.9193646944316 1007.8482403532441 339.1454373314701L1007.8482403532441 339.1454373314701Q1020.637019016455 336.6083086611879 1031.3218373189443 332.31787969030427L1031.3218373189443 332.31787969030427L1033.8383389268663 333.204843371785L1033.8383389268663 344.34345704619454Q1040.6865236303922 338.0934571511092 1047.2046753361578 335.576955543187Q1053.7434541042833 333.0604539352649 1059.6840480639685 333.0604539352649L1059.6840480639685 333.0604539352649Q1069.4819026849768 333.0604539352649 1074.6799223997011 338.8360313960698Q1079.8779421144257 344.63223591923474 1079.8779421144257 355.48207072060404L1079.8779421144257 355.48207072060404L1079.8779421144257 389.1866906168728Q1079.8779421144257 394.9828951400377 1080.5586351723061 397.4993967479599Q1081.2187011678266 400.03652541824204 1083.4464239027086 400.69659141376263Q1085.6741466375906 401.3772844716432 1090.5833874792747 401.6660633446835L1090.5833874792747 401.6660633446835Q1090.872166352315 403.89378607956536 1090.5833874792747 406.2658982509674L1090.5833874792747 406.2658982509674Q1086.1279420095111 406.2658982509674 1081.8993942257075 406.1215088144472Q1077.6502193795436 405.9771193779271 1072.019031355259 405.9771193779271L1072.019031355259 405.9771193779271Q1066.5116057051341 405.9771193779271 1062.4274473578507 406.1215088144472Q1058.3432890105673 406.2658982509674 1054.1972494762038 406.2658982509674ZM1104.2385027616065 443.99279530743956L1104.2385027616065 443.99279530743956Q1100.236852663763 443.99279530743956 1098.071011115961 441.6825643231176Q1095.9257966305195 439.3929604011557 1095.9257966305195 436.27827398479303L1095.9257966305195 436.27827398479303Q1095.9257966305195 432.11160738806944 1100.381242100283 428.1718384773061Q1104.836687570047 424.2320695665427 1114.9439481264556 424.2320695665427L1114.9439481264556 424.2320695665427Q1116.862264925937 420.8286042771398 1118.718700538339 416.88883536637644Q1120.5751361507403 412.9490664556131 1123.1122648210226 407.15286193244816L1123.1122648210226 407.15286193244816Q1121.4620998322212 403.0068223980846 1118.945598224299 396.468043629959Q1116.4290966163767 389.9292648618334 1113.231901950574 381.98784585322664Q1110.0347072847715 374.0464268446199 1106.7756314318885 365.5068230275726Q1103.4959285166458 356.9672192105253 1100.381242100283 348.94329195247843L1100.381242100283 348.94329195247843Q1098.6073147373215 344.1990676096744 1096.44147318952 342.4045131843529Q1094.296258704078 340.6305858213914 1088.2112753078727 340.03240101295086L1088.2112753078727 340.03240101295086Q1087.7574799359522 337.9490677145891 1088.2112753078727 335.4325661066669L1088.2112753078727 335.4325661066669Q1092.5017042787565 335.4325661066669 1096.9571497485204 335.576955543187Q1101.412595218284 335.72134497970717 1106.177446623448 335.72134497970717L1106.177446623448 335.72134497970717Q1110.4885026566917 335.72134497970717 1115.5215058725362 335.576955543187Q1120.5751361507403 335.4325661066669 1124.1436179390234 335.4325661066669L1124.1436179390234 335.4325661066669Q1124.4323968120639 337.66028884154883 1124.1436179390234 340.03240101295086L1124.1436179390234 340.03240101295086Q1119.0899876608191 340.3211798859911 1117.0891626118973 341.06375413095174Q1115.0883375629758 341.80632837591236 1115.0883375629758 344.0340511107943L1115.0883375629758 344.0340511107943Q1115.0883375629758 346.11738440915605 1116.573486052897 350.42844044239973L1116.573486052897 350.42844044239973Q1120.4307467142203 360.9688693083687 1124.0611096895834 369.87976024789634Q1127.7120997273064 378.7906511874239 1131.4249709521096 388.1553374988719L1131.4249709521096 388.1553374988719Q1136.1691952949136 377.3055026975027 1139.8201853326368 368.7040176933753Q1143.4505483079997 360.081905626888 1147.1634195328031 350.71721931543993L1147.1634195328031 350.71721931543993Q1148.7929574592445 346.4267903445563 1148.7929574592445 344.34345704619454L1148.7929574592445 344.34345704619454Q1148.7929574592445 342.2601237478327 1146.5652347243627 341.373160066352Q1144.3375119894806 340.4861963848712 1138.7063239651957 340.03240101295086L1138.7063239651957 340.03240101295086Q1138.2525285932757 337.66028884154883 1138.7063239651957 335.4325661066669L1138.7063239651957 335.4325661066669Q1142.4191951899988 335.4325661066669 1146.3383370384022 335.576955543187Q1150.2781059491658 335.72134497970717 1154.7335514189294 335.72134497970717L1154.7335514189294 335.72134497970717Q1157.7038483987722 335.72134497970717 1161.189821937615 335.576955543187Q1164.696422538818 335.4325661066669 1167.5017030197805 335.4325661066669L1167.5017030197805 335.4325661066669Q1167.9554983917008 337.66028884154883 1167.5017030197805 340.03240101295086L1167.5017030197805 340.03240101295086Q1161.272330187055 340.4861963848712 1159.0446074521733 342.77580030683316Q1156.8168847172915 345.08603129115517 1154.8779408554497 349.68586619743905L1154.8779408554497 349.68586619743905L1129.486027090268 408.94741635776967Q1128.7434528453073 410.72134372073117 1126.8251360458257 414.9498915045348Q1124.886192183984 419.19906635069844 1122.7409776985423 423.71639300754225Q1120.5751361507403 428.2543467267461 1119.0899876608191 431.2246437065887L1119.0899876608191 431.2246437065887Q1115.377116436016 438.5059967196749 1111.8086346477328 441.24939601355726Q1108.26077992181 443.99279530743956 1104.2385027616065 443.99279530743956ZM1204.6304152678122 406.2658982509674L1204.6304152678122 406.2658982509674Q1200.3399862969284 406.2658982509674 1195.8845408271648 406.1215088144472Q1191.429095357401 405.9771193779271 1185.9216697072761 405.9771193779271L1185.9216697072761 405.9771193779271Q1180.4348711195116 405.9771193779271 1176.1238150862678 406.1215088144472Q1171.8127590530241 406.2658982509674 1167.3573135832603 406.2658982509674L1167.3573135832603 406.2658982509674Q1166.9241452736999 403.89378607956536 1167.3573135832603 401.6660633446835L1167.3573135832603 401.6660633446835Q1172.4109438614646 401.3772844716432 1174.7830560328666 400.69659141376263Q1177.1551682042686 400.03652541824204 1177.8977424492293 397.80880268336017Q1178.64031669419 395.58107994847825 1178.64031669419 390.6718391067941L1178.64031669419 390.6718391067941L1178.64031669419 316.27002517421056Q1178.64031669419 311.6701902679266 1177.8358612621494 309.35995928360467Q1177.0107787677484 307.07035536164267 1174.4117689103864 306.10088343072186Q1171.8127590530241 305.13141149980106 1166.6147393382998 304.6776161278807L1166.6147393382998 304.6776161278807Q1166.1815710287392 302.75929932839904 1166.6147393382998 300.6759660300372L1166.6147393382998 300.6759660300372Q1172.5553332979848 299.93339178507665 1178.80533319307 298.36573504571527Q1185.0347060257955 296.81870536871395 1191.573484793921 293.99279782539156L1191.573484793921 293.99279782539156L1194.0899864018431 294.8797615068723Q1193.9455969653231 298.1594644221151 1193.863088715883 302.3055039564787Q1193.801207528803 306.4721705532022 1193.801207528803 311.36078433252635L1193.801207528803 311.36078433252635L1193.801207528803 389.1866906168728Q1193.801207528803 394.9828951400377 1194.4612735243236 397.4993967479599Q1195.141966582204 400.03652541824204 1197.4315705041658 400.69659141376263Q1199.741801488488 401.3772844716432 1204.6304152678122 401.6660633446835L1204.6304152678122 401.6660633446835Q1204.9398212032124 403.89378607956536 1204.6304152678122 406.2658982509674ZM1218.594936485544 382.64791184874724L1218.594936485544 382.64791184874724Q1220.822659220426 392.4663935321156 1225.73190006211 397.5819049974Q1230.6205138414343 402.6974164626844 1238.355662226441 402.6974164626844L1238.355662226441 402.6974164626844Q1244.151866749606 402.6974164626844 1248.1535168474493 399.954017168802Q1252.1551669452926 397.21061787491965 1252.1551669452926 391.27002391523456L1252.1551669452926 391.27002391523456Q1252.1551669452926 386.8145784454708 1250.009952459851 384.1330603386685Q1247.864737974409 381.4721692942262 1244.0693585001657 379.6157336818246Q1240.2739790259227 377.75929806942304 1235.5297546831187 375.8203542075814L1235.5297546831187 375.8203542075814Q1230.042956095354 373.5926314726995 1225.2162235031096 370.99362161533725Q1220.3894909108656 368.39461175797504 1217.3366856815828 364.4548428472117Q1214.2838804523003 360.53570099880835 1214.2838804523003 354.285701103723L1214.2838804523003 354.285701103723Q1214.2838804523003 347.16936458951693 1218.0792599265437 342.48702143379296Q1221.874639400787 337.80467827806893 1227.8771145475519 335.4325661066669Q1233.900216756677 333.0604539352649 1240.7277743978432 333.0604539352649L1240.7277743978432 333.0604539352649Q1244.151866749606 333.0604539352649 1247.5553320390088 333.49362224482525Q1250.9794243907716 333.9474176167456 1251.268203263812 333.9474176167456L1251.268203263812 333.9474176167456Q1254.2385002436545 334.380585926306 1256.7756289139368 334.46309417574605Q1259.292130521859 334.54560242518613 1259.436519958379 334.54560242518613L1259.436519958379 334.54560242518613Q1259.580909394899 334.54560242518613 1260.1172130162595 334.54560242518613Q1260.63288957526 334.54560242518613 1261.5198532567408 334.380585926306L1261.5198532567408 334.380585926306Q1261.5198532567408 339.1454373314701 1261.6642426932608 344.0340511107943Q1261.8086321297808 348.94329195247843 1262.2624275017013 354.4300905402431L1262.2624275017013 354.4300905402431Q1262.118038065181 354.4300905402431 1261.6642426932608 354.4300905402431L1261.6642426932608 354.4300905402431Q1260.32348363986 354.59510703912326 1259.2096222724188 354.65698822620334Q1258.0957609049776 354.7394964756434 1257.0644077869767 354.59510703912326L1257.0644077869767 354.59510703912326Q1255.1254639251354 346.26177384567615 1251.350711513252 342.48702143379296Q1247.5553320390088 338.6916419595497 1240.7277743978432 338.6916419595497L1240.7277743978432 338.6916419595497Q1234.6427910016378 338.6916419595497 1230.9918009639148 341.373160066352Q1227.3614379885514 344.0340511107943 1227.3614379885514 348.79890251595833L1227.3614379885514 348.79890251595833Q1227.3614379885514 352.6561631772816 1229.7335501599534 355.1107835981237Q1232.1056623313555 357.5654040189658 1235.5297546831187 359.1949419454072Q1238.9538470348814 360.8244798718486 1242.068533451244 362.0208494887296L1242.068533451244 362.0208494887296Q1247.864737974409 364.2485722236115 1253.1246388762136 366.9919715174939Q1258.4051668403781 369.7353708113762 1261.7467509427008 374.0464268446199Q1265.0883350450238 378.35748287786356 1265.0883350450238 385.6182088285898L1265.0883350450238 385.6182088285898Q1265.0883350450238 393.3533572135964 1261.1485661342604 398.3244792423606Q1257.208797223497 403.29560127112484 1251.1238138272918 405.6058322554468Q1245.0388304310866 407.8954361774088 1238.355662226441 407.8954361774088L1238.355662226441 407.8954361774088Q1234.4984015651175 407.8954361774088 1230.7030220908744 407.31787843132827Q1226.9076426166312 406.7196936228878 1226.618863743591 406.7196936228878L1226.618863743591 406.7196936228878Q1226.3300848705505 406.7196936228878 1224.1642433227487 406.41028768748754Q1222.019028837307 406.1215088144472 1219.4200189799446 405.832729941407Q1216.8210091225824 405.52332400600676 1214.882065260741 405.52332400600676L1214.882065260741 405.52332400600676Q1214.882065260741 400.9234890997228 1214.5107781382605 395.271674013078Q1214.13949101578 389.6404859887932 1213.70632270622 382.81292834762735L1213.70632270622 382.81292834762735Q1213.99510157926 382.81292834762735 1214.4488969511806 382.81292834762735L1214.4488969511806 382.81292834762735Q1215.7690289422217 382.64791184874724 1216.7385008731426 382.58603066166717Q1217.7079728040633 382.5035224122271 1218.594936485544 382.64791184874724Z " fill="#ffffff" transform="matrix(0.6940438969209258,0,0,0.6940438969209258,-3.0268411273339773,43.90281480204253)"/></g></svg>