<?xml version="1.0" encoding="UTF-8"?>
<svg xmlns="http://www.w3.org/2000/svg" xmlns:xlink="http://www.w3.org/1999/xlink" width="117px" height="40px" viewBox="0 0 117 40" version="1.1">
<g id="surface1">
<rect x="0" y="0" width="117" height="40" style="fill:rgb(0%,0%,0%);fill-opacity:1;stroke:none;"/>
<path style=" stroke:none;fill-rule:nonzero;fill:rgb(100%,0%,0%);fill-opacity:1;" d="M 16.511719 12.285156 L 41.414062 12.285156 C 42.011719 12.285156 42.496094 12.5625 42.496094 12.90625 L 42.496094 27.09375 C 42.496094 27.4375 42.011719 27.714844 41.414062 27.714844 L 16.511719 27.714844 C 15.914062 27.714844 15.429688 27.4375 15.429688 27.09375 L 15.429688 12.90625 C 15.429688 12.5625 15.914062 12.285156 16.511719 12.285156 Z M 16.511719 12.285156 "/>
<path style=" stroke:none;fill-rule:nonzero;fill:rgb(0%,0%,0%);fill-opacity:1;" d="M 19.011719 16.542969 L 22.570312 21.910156 L 26.257812 16.542969 C 26.496094 16.546875 26.75 16.546875 27.015625 16.546875 C 27.277344 16.546875 27.503906 16.546875 27.6875 16.546875 C 27.773438 16.546875 27.945312 16.546875 28.191406 16.546875 C 28.4375 16.542969 28.710938 16.542969 29 16.542969 C 29.292969 16.542969 29.5625 16.535156 29.808594 16.535156 C 30.058594 16.53125 30.222656 16.53125 30.316406 16.53125 C 30.351562 16.628906 30.351562 16.730469 30.316406 16.832031 L 30.28125 16.832031 C 29.753906 16.863281 29.371094 16.894531 29.128906 16.925781 C 28.890625 16.957031 28.742188 17.019531 28.691406 17.121094 C 28.640625 17.222656 28.617188 17.390625 28.617188 17.621094 L 28.75 22.199219 C 28.75 22.402344 28.761719 22.558594 28.789062 22.675781 C 28.808594 22.796875 28.871094 22.878906 28.976562 22.933594 C 29.078125 22.984375 29.246094 23.019531 29.472656 23.042969 C 29.703125 23.066406 30.03125 23.089844 30.453125 23.109375 C 30.492188 23.207031 30.492188 23.308594 30.453125 23.410156 C 30.363281 23.410156 30.191406 23.410156 29.949219 23.40625 C 29.703125 23.40625 29.429688 23.402344 29.136719 23.402344 C 28.84375 23.402344 28.578125 23.402344 28.332031 23.394531 C 28.082031 23.394531 27.914062 23.390625 27.820312 23.390625 C 27.730469 23.390625 27.566406 23.394531 27.324219 23.394531 C 27.082031 23.402344 26.820312 23.402344 26.53125 23.402344 C 26.242188 23.402344 25.980469 23.40625 25.738281 23.40625 C 25.5 23.410156 25.332031 23.410156 25.242188 23.410156 C 25.226562 23.3125 25.226562 23.214844 25.242188 23.109375 L 25.273438 23.109375 C 25.78125 23.074219 26.148438 23.046875 26.378906 23.015625 C 26.605469 22.984375 26.75 22.921875 26.796875 22.816406 C 26.851562 22.71875 26.875 22.550781 26.875 22.324219 L 26.722656 17.066406 L 22.382812 23.390625 C 22.304688 23.410156 22.179688 23.425781 22.007812 23.433594 C 21.835938 23.4375 21.6875 23.441406 21.558594 23.441406 L 17.480469 17.277344 L 17.207031 22.324219 C 17.195312 22.542969 17.214844 22.691406 17.257812 22.792969 C 17.300781 22.886719 17.441406 22.953125 17.671875 22.988281 C 17.898438 23.03125 18.285156 23.066406 18.824219 23.109375 C 18.867188 23.214844 18.867188 23.3125 18.824219 23.410156 C 18.710938 23.410156 18.511719 23.410156 18.230469 23.40625 C 17.949219 23.40625 17.667969 23.402344 17.386719 23.394531 C 17.105469 23.394531 16.902344 23.390625 16.777344 23.390625 C 16.707031 23.390625 16.574219 23.394531 16.371094 23.394531 C 16.171875 23.402344 15.953125 23.402344 15.707031 23.402344 C 15.46875 23.402344 15.246094 23.40625 15.046875 23.40625 C 14.84375 23.410156 14.710938 23.410156 14.640625 23.410156 C 14.621094 23.308594 14.621094 23.207031 14.640625 23.109375 C 15.179688 23.066406 15.566406 23.03125 15.796875 22.988281 C 16.023438 22.953125 16.171875 22.875 16.234375 22.753906 C 16.296875 22.636719 16.335938 22.453125 16.347656 22.199219 L 16.671875 17.621094 C 16.695312 17.390625 16.675781 17.222656 16.621094 17.125 C 16.5625 17.03125 16.410156 16.964844 16.164062 16.925781 C 15.917969 16.890625 15.515625 16.859375 14.953125 16.832031 C 14.941406 16.730469 14.941406 16.628906 14.953125 16.53125 C 15.34375 16.53125 15.746094 16.53125 16.15625 16.542969 C 16.570312 16.546875 17.027344 16.546875 17.535156 16.546875 C 17.703125 16.546875 17.933594 16.546875 18.222656 16.546875 C 18.507812 16.546875 18.773438 16.546875 19.011719 16.542969 Z M 36.304688 23.46875 L 32.585938 17.878906 C 32.4375 17.644531 32.3125 17.464844 32.199219 17.332031 C 32.089844 17.203125 31.972656 17.105469 31.847656 17.035156 C 31.722656 16.972656 31.558594 16.925781 31.359375 16.90625 C 31.15625 16.886719 30.890625 16.863281 30.558594 16.84375 C 30.523438 16.738281 30.523438 16.636719 30.558594 16.53125 C 30.957031 16.53125 31.382812 16.53125 31.824219 16.542969 C 32.265625 16.546875 32.691406 16.546875 33.105469 16.546875 C 33.355469 16.546875 33.644531 16.546875 33.972656 16.546875 C 34.300781 16.542969 34.628906 16.535156 34.953125 16.535156 C 35.28125 16.53125 35.570312 16.53125 35.820312 16.53125 C 35.855469 16.628906 35.855469 16.734375 35.820312 16.84375 C 35.214844 16.871094 34.792969 16.902344 34.550781 16.941406 C 34.308594 16.980469 34.1875 17.058594 34.1875 17.175781 C 34.1875 17.222656 34.207031 17.28125 34.25 17.347656 C 34.289062 17.417969 34.335938 17.496094 34.394531 17.589844 L 37.339844 22.078125 L 40.207031 17.765625 C 40.292969 17.640625 40.355469 17.535156 40.402344 17.449219 C 40.445312 17.359375 40.46875 17.285156 40.46875 17.222656 C 40.46875 17.09375 40.347656 17.003906 40.117188 16.957031 C 39.878906 16.90625 39.441406 16.871094 38.800781 16.84375 C 38.765625 16.734375 38.765625 16.628906 38.800781 16.53125 C 38.96875 16.53125 39.222656 16.53125 39.558594 16.535156 C 39.890625 16.535156 40.222656 16.542969 40.554688 16.546875 C 40.886719 16.546875 41.136719 16.546875 41.308594 16.546875 C 41.679688 16.546875 42.007812 16.546875 42.300781 16.542969 C 42.59375 16.53125 42.917969 16.53125 43.273438 16.53125 C 43.308594 16.636719 43.308594 16.738281 43.273438 16.84375 C 42.941406 16.863281 42.667969 16.878906 42.457031 16.902344 C 42.242188 16.921875 42.0625 16.964844 41.914062 17.03125 C 41.765625 17.09375 41.625 17.199219 41.492188 17.339844 C 41.359375 17.480469 41.207031 17.675781 41.035156 17.933594 L 37.234375 23.390625 C 37.09375 23.417969 36.9375 23.4375 36.761719 23.453125 C 36.582031 23.464844 36.429688 23.46875 36.304688 23.46875 Z M 36.304688 23.46875 "/>
<path style=" stroke:none;fill-rule:nonzero;fill:rgb(100%,100%,100%);fill-opacity:1;" d="M 52.339844 16.90625 L 54.832031 20.671875 L 57.417969 16.90625 C 57.582031 16.910156 57.761719 16.917969 57.945312 16.917969 C 58.132812 16.917969 58.289062 16.917969 58.417969 16.917969 C 58.480469 16.917969 58.597656 16.910156 58.773438 16.910156 C 58.945312 16.910156 59.132812 16.90625 59.339844 16.90625 C 59.542969 16.90625 59.734375 16.90625 59.90625 16.90625 C 60.078125 16.902344 60.199219 16.902344 60.261719 16.902344 C 60.285156 16.96875 60.285156 17.042969 60.261719 17.113281 L 60.238281 17.113281 C 59.867188 17.136719 59.597656 17.15625 59.429688 17.175781 C 59.261719 17.199219 59.15625 17.246094 59.121094 17.316406 C 59.085938 17.386719 59.070312 17.503906 59.070312 17.660156 L 59.164062 20.871094 C 59.164062 21.015625 59.171875 21.125 59.191406 21.207031 C 59.207031 21.292969 59.25 21.347656 59.320312 21.386719 C 59.394531 21.425781 59.511719 21.453125 59.671875 21.46875 C 59.832031 21.484375 60.0625 21.5 60.355469 21.511719 C 60.382812 21.578125 60.382812 21.652344 60.355469 21.722656 C 60.292969 21.722656 60.175781 21.722656 60 21.722656 C 59.828125 21.71875 59.640625 21.71875 59.433594 21.71875 C 59.230469 21.71875 59.042969 21.71875 58.867188 21.714844 C 58.695312 21.714844 58.574219 21.714844 58.511719 21.714844 C 58.449219 21.714844 58.332031 21.714844 58.164062 21.714844 C 57.992188 21.71875 57.808594 21.71875 57.605469 21.71875 C 57.40625 21.71875 57.222656 21.71875 57.054688 21.722656 C 56.882812 21.722656 56.769531 21.722656 56.703125 21.722656 C 56.695312 21.65625 56.695312 21.582031 56.703125 21.511719 L 56.730469 21.511719 C 57.082031 21.488281 57.339844 21.46875 57.5 21.449219 C 57.660156 21.425781 57.761719 21.378906 57.792969 21.308594 C 57.832031 21.238281 57.851562 21.121094 57.851562 20.964844 L 57.742188 17.28125 L 54.703125 21.714844 C 54.644531 21.722656 54.554688 21.734375 54.4375 21.738281 C 54.316406 21.746094 54.210938 21.746094 54.121094 21.746094 L 51.265625 17.421875 L 51.074219 20.964844 C 51.066406 21.113281 51.074219 21.222656 51.109375 21.285156 C 51.140625 21.355469 51.238281 21.402344 51.394531 21.433594 C 51.558594 21.457031 51.828125 21.484375 52.207031 21.511719 C 52.238281 21.582031 52.238281 21.65625 52.207031 21.722656 C 52.125 21.722656 51.988281 21.722656 51.789062 21.722656 C 51.59375 21.71875 51.394531 21.71875 51.199219 21.714844 C 51.003906 21.714844 50.859375 21.714844 50.769531 21.714844 C 50.722656 21.714844 50.628906 21.714844 50.488281 21.714844 C 50.347656 21.71875 50.191406 21.71875 50.023438 21.71875 C 49.851562 21.71875 49.699219 21.71875 49.558594 21.722656 C 49.417969 21.722656 49.324219 21.722656 49.277344 21.722656 C 49.261719 21.652344 49.261719 21.578125 49.277344 21.511719 C 49.65625 21.484375 49.921875 21.457031 50.082031 21.433594 C 50.246094 21.402344 50.347656 21.347656 50.390625 21.265625 C 50.433594 21.183594 50.460938 21.050781 50.46875 20.871094 L 50.699219 17.660156 C 50.714844 17.503906 50.703125 17.390625 50.664062 17.316406 C 50.621094 17.25 50.515625 17.203125 50.339844 17.175781 C 50.167969 17.15625 49.886719 17.128906 49.492188 17.113281 C 49.484375 17.042969 49.484375 16.96875 49.492188 16.902344 C 49.765625 16.902344 50.046875 16.902344 50.335938 16.90625 C 50.625 16.910156 50.945312 16.917969 51.300781 16.917969 C 51.421875 16.917969 51.582031 16.917969 51.78125 16.917969 C 51.984375 16.917969 52.167969 16.910156 52.339844 16.90625 Z M 61.84375 23.46875 C 61.625 23.46875 61.457031 23.433594 61.339844 23.363281 C 61.222656 23.292969 61.167969 23.207031 61.167969 23.113281 C 61.167969 22.984375 61.285156 22.859375 61.527344 22.738281 C 61.765625 22.613281 62.160156 22.558594 62.710938 22.558594 C 62.8125 22.453125 62.917969 22.339844 63.019531 22.214844 C 63.117188 22.09375 63.238281 21.941406 63.375 21.765625 C 63.285156 21.636719 63.171875 21.472656 63.035156 21.269531 C 62.898438 21.066406 62.742188 20.84375 62.570312 20.597656 C 62.398438 20.355469 62.222656 20.105469 62.046875 19.839844 C 61.867188 19.574219 61.695312 19.316406 61.527344 19.074219 C 61.429688 18.925781 61.324219 18.824219 61.207031 18.769531 C 61.089844 18.714844 60.867188 18.675781 60.539062 18.660156 C 60.511719 18.59375 60.511719 18.527344 60.539062 18.449219 C 60.773438 18.449219 61.007812 18.449219 61.25 18.453125 C 61.492188 18.457031 61.742188 18.457031 61.996094 18.457031 C 62.230469 18.457031 62.484375 18.457031 62.757812 18.453125 C 63.03125 18.449219 63.261719 18.449219 63.457031 18.449219 C 63.472656 18.515625 63.472656 18.589844 63.457031 18.660156 C 63.183594 18.667969 62.996094 18.683594 62.886719 18.707031 C 62.773438 18.730469 62.71875 18.777344 62.71875 18.84375 C 62.71875 18.910156 62.761719 19.011719 62.84375 19.140625 C 63.050781 19.46875 63.253906 19.765625 63.453125 20.042969 C 63.648438 20.316406 63.847656 20.597656 64.046875 20.886719 C 64.304688 20.550781 64.53125 20.25 64.730469 19.984375 C 64.925781 19.71875 65.125 19.441406 65.328125 19.15625 C 65.414062 19.019531 65.460938 18.921875 65.460938 18.859375 C 65.460938 18.796875 65.398438 18.75 65.28125 18.722656 C 65.160156 18.691406 64.945312 18.671875 64.640625 18.660156 C 64.613281 18.589844 64.613281 18.515625 64.640625 18.449219 C 64.839844 18.449219 65.046875 18.449219 65.261719 18.453125 C 65.472656 18.457031 65.699219 18.457031 65.941406 18.457031 C 66.101562 18.457031 66.277344 18.457031 66.46875 18.453125 C 66.65625 18.449219 66.824219 18.449219 66.980469 18.449219 C 67.003906 18.515625 67.003906 18.589844 66.980469 18.660156 C 66.640625 18.671875 66.410156 18.71875 66.289062 18.785156 C 66.171875 18.859375 66.058594 18.964844 65.953125 19.105469 L 63.894531 21.847656 C 63.851562 21.902344 63.78125 21.996094 63.671875 22.125 C 63.570312 22.253906 63.460938 22.390625 63.34375 22.53125 C 63.226562 22.671875 63.128906 22.785156 63.046875 22.878906 C 62.847656 23.105469 62.648438 23.261719 62.457031 23.34375 C 62.261719 23.425781 62.058594 23.46875 61.84375 23.46875 Z M 73.128906 21.765625 L 70.527344 17.847656 C 70.417969 17.683594 70.332031 17.558594 70.253906 17.464844 C 70.175781 17.375 70.09375 17.300781 70.007812 17.261719 C 69.917969 17.214844 69.804688 17.183594 69.660156 17.167969 C 69.519531 17.152344 69.335938 17.136719 69.101562 17.121094 C 69.078125 17.046875 69.078125 16.972656 69.101562 16.902344 C 69.382812 16.902344 69.675781 16.902344 69.988281 16.90625 C 70.296875 16.910156 70.597656 16.917969 70.886719 16.917969 C 71.0625 16.917969 71.265625 16.910156 71.496094 16.910156 C 71.726562 16.910156 71.953125 16.90625 72.183594 16.90625 C 72.410156 16.902344 72.617188 16.902344 72.789062 16.902344 C 72.816406 16.96875 72.816406 17.042969 72.789062 17.121094 C 72.363281 17.140625 72.066406 17.160156 71.898438 17.1875 C 71.730469 17.21875 71.648438 17.269531 71.648438 17.355469 C 71.648438 17.386719 71.660156 17.425781 71.6875 17.472656 C 71.71875 17.519531 71.75 17.578125 71.789062 17.640625 L 73.855469 20.792969 L 75.867188 17.765625 C 75.925781 17.675781 75.96875 17.605469 75.996094 17.542969 C 76.03125 17.480469 76.046875 17.433594 76.046875 17.390625 C 76.046875 17.296875 75.964844 17.234375 75.800781 17.199219 C 75.636719 17.167969 75.328125 17.140625 74.878906 17.121094 C 74.855469 17.042969 74.855469 16.96875 74.878906 16.902344 C 75 16.902344 75.175781 16.902344 75.410156 16.90625 C 75.644531 16.90625 75.875 16.910156 76.109375 16.910156 C 76.34375 16.910156 76.515625 16.917969 76.636719 16.917969 C 76.894531 16.917969 77.125 16.910156 77.332031 16.90625 C 77.539062 16.902344 77.765625 16.902344 78.015625 16.902344 C 78.039062 16.972656 78.039062 17.046875 78.015625 17.121094 C 77.78125 17.136719 77.589844 17.144531 77.441406 17.160156 C 77.292969 17.175781 77.164062 17.203125 77.0625 17.25 C 76.957031 17.296875 76.855469 17.371094 76.765625 17.46875 C 76.675781 17.566406 76.566406 17.703125 76.445312 17.886719 L 73.78125 21.714844 C 73.683594 21.730469 73.574219 21.746094 73.449219 21.75 C 73.324219 21.761719 73.21875 21.765625 73.128906 21.765625 Z M 80.898438 21.722656 C 80.671875 21.722656 80.4375 21.722656 80.195312 21.71875 C 79.953125 21.714844 79.691406 21.714844 79.414062 21.714844 C 79.15625 21.714844 78.898438 21.714844 78.636719 21.71875 C 78.375 21.722656 78.125 21.722656 77.878906 21.722656 C 77.855469 21.652344 77.855469 21.578125 77.878906 21.511719 C 78.15625 21.503906 78.355469 21.488281 78.484375 21.46875 C 78.613281 21.449219 78.699219 21.402344 78.738281 21.332031 C 78.777344 21.265625 78.796875 21.15625 78.796875 21.003906 L 78.796875 19.464844 C 78.796875 19.285156 78.785156 19.152344 78.761719 19.066406 C 78.738281 18.980469 78.664062 18.917969 78.539062 18.886719 C 78.414062 18.847656 78.199219 18.824219 77.894531 18.796875 C 77.867188 18.734375 77.867188 18.671875 77.894531 18.621094 C 78.246094 18.582031 78.585938 18.535156 78.90625 18.480469 C 79.226562 18.425781 79.535156 18.363281 79.835938 18.300781 L 80.039062 18.34375 C 80.03125 18.484375 80.023438 18.621094 80.023438 18.738281 C 80.015625 18.863281 80.015625 18.984375 80.015625 19.09375 L 80.015625 20.933594 C 80.015625 21.113281 80.03125 21.238281 80.070312 21.316406 C 80.105469 21.394531 80.1875 21.449219 80.308594 21.46875 C 80.433594 21.488281 80.628906 21.503906 80.898438 21.511719 C 80.921875 21.578125 80.921875 21.652344 80.898438 21.722656 Z M 78.484375 17.136719 C 78.484375 17 78.566406 16.890625 78.730469 16.796875 C 78.898438 16.707031 79.09375 16.660156 79.332031 16.660156 C 79.550781 16.660156 79.746094 16.707031 79.914062 16.796875 C 80.078125 16.890625 80.160156 17 80.160156 17.125 C 80.160156 17.246094 80.078125 17.355469 79.917969 17.453125 C 79.757812 17.550781 79.550781 17.605469 79.304688 17.605469 C 79.078125 17.605469 78.886719 17.558594 78.726562 17.464844 C 78.566406 17.375 78.484375 17.261719 78.484375 17.136719 Z M 85.25 21.722656 C 85.230469 21.652344 85.230469 21.578125 85.25 21.511719 C 85.5 21.503906 85.683594 21.488281 85.804688 21.46875 C 85.925781 21.449219 86.003906 21.402344 86.042969 21.332031 C 86.085938 21.265625 86.105469 21.15625 86.105469 21.003906 L 86.105469 19.613281 C 86.105469 19.339844 86.03125 19.136719 85.882812 19 C 85.734375 18.863281 85.4375 18.796875 84.996094 18.796875 C 84.765625 18.796875 84.539062 18.824219 84.320312 18.871094 C 84.105469 18.917969 83.867188 19.011719 83.609375 19.140625 L 83.609375 20.933594 C 83.609375 21.113281 83.628906 21.238281 83.664062 21.316406 C 83.699219 21.394531 83.777344 21.449219 83.898438 21.46875 C 84.019531 21.488281 84.207031 21.503906 84.46875 21.511719 C 84.484375 21.578125 84.484375 21.652344 84.46875 21.722656 C 84.238281 21.722656 84.003906 21.722656 83.761719 21.71875 C 83.515625 21.714844 83.253906 21.714844 82.972656 21.714844 C 82.710938 21.714844 82.457031 21.714844 82.210938 21.71875 C 81.960938 21.722656 81.714844 21.722656 81.472656 21.722656 C 81.449219 21.652344 81.449219 21.578125 81.472656 21.511719 C 81.75 21.503906 81.949219 21.488281 82.078125 21.46875 C 82.207031 21.449219 82.289062 21.402344 82.332031 21.332031 C 82.371094 21.265625 82.390625 21.15625 82.390625 21.003906 L 82.390625 19.464844 C 82.390625 19.285156 82.378906 19.152344 82.347656 19.066406 C 82.320312 18.980469 82.246094 18.917969 82.121094 18.886719 C 81.996094 18.847656 81.785156 18.824219 81.488281 18.796875 C 81.464844 18.734375 81.464844 18.671875 81.488281 18.621094 C 82.179688 18.542969 82.8125 18.4375 83.390625 18.300781 L 83.597656 18.34375 L 83.597656 18.859375 C 83.96875 18.667969 84.328125 18.53125 84.679688 18.453125 C 85.035156 18.375 85.375 18.339844 85.695312 18.339844 C 86.226562 18.339844 86.632812 18.425781 86.914062 18.605469 C 87.195312 18.78125 87.335938 19.042969 87.335938 19.375 L 87.335938 20.933594 C 87.335938 21.113281 87.351562 21.238281 87.390625 21.316406 C 87.425781 21.394531 87.503906 21.449219 87.625 21.46875 C 87.746094 21.488281 87.9375 21.503906 88.203125 21.511719 C 88.21875 21.578125 88.21875 21.652344 88.203125 21.722656 C 87.964844 21.722656 87.730469 21.722656 87.5 21.71875 C 87.269531 21.714844 87.003906 21.714844 86.699219 21.714844 C 86.398438 21.714844 86.136719 21.714844 85.917969 21.71875 C 85.699219 21.722656 85.476562 21.722656 85.25 21.722656 Z M 89.3125 23.46875 C 89.097656 23.46875 88.929688 23.433594 88.8125 23.363281 C 88.695312 23.292969 88.636719 23.207031 88.636719 23.113281 C 88.636719 22.984375 88.757812 22.859375 89 22.738281 C 89.242188 22.613281 89.636719 22.558594 90.183594 22.558594 C 90.285156 22.453125 90.386719 22.339844 90.488281 22.214844 C 90.589844 22.09375 90.707031 21.941406 90.847656 21.765625 C 90.757812 21.636719 90.644531 21.472656 90.507812 21.269531 C 90.371094 21.066406 90.21875 20.84375 90.042969 20.597656 C 89.871094 20.355469 89.695312 20.105469 89.519531 19.839844 C 89.34375 19.574219 89.167969 19.316406 89 19.074219 C 88.90625 18.925781 88.796875 18.824219 88.679688 18.769531 C 88.566406 18.714844 88.339844 18.675781 88.011719 18.660156 C 87.988281 18.59375 87.988281 18.527344 88.011719 18.449219 C 88.242188 18.449219 88.480469 18.449219 88.722656 18.453125 C 88.964844 18.457031 89.210938 18.457031 89.472656 18.457031 C 89.703125 18.457031 89.957031 18.457031 90.226562 18.453125 C 90.503906 18.449219 90.738281 18.449219 90.929688 18.449219 C 90.945312 18.515625 90.945312 18.589844 90.929688 18.660156 C 90.65625 18.667969 90.464844 18.683594 90.355469 18.707031 C 90.25 18.730469 90.195312 18.777344 90.195312 18.84375 C 90.195312 18.910156 90.234375 19.011719 90.316406 19.140625 C 90.523438 19.46875 90.726562 19.765625 90.921875 20.042969 C 91.121094 20.316406 91.320312 20.597656 91.519531 20.886719 C 91.777344 20.550781 92.003906 20.25 92.203125 19.984375 C 92.398438 19.71875 92.597656 19.441406 92.796875 19.15625 C 92.886719 19.019531 92.929688 18.921875 92.929688 18.859375 C 92.929688 18.796875 92.871094 18.75 92.75 18.722656 C 92.632812 18.691406 92.417969 18.671875 92.113281 18.660156 C 92.085938 18.589844 92.085938 18.515625 92.113281 18.449219 C 92.3125 18.449219 92.519531 18.449219 92.734375 18.453125 C 92.945312 18.457031 93.171875 18.457031 93.414062 18.457031 C 93.574219 18.457031 93.75 18.457031 93.9375 18.453125 C 94.128906 18.449219 94.300781 18.449219 94.453125 18.449219 C 94.476562 18.515625 94.476562 18.589844 94.453125 18.660156 C 94.113281 18.671875 93.882812 18.71875 93.765625 18.785156 C 93.644531 18.859375 93.53125 18.964844 93.425781 19.105469 L 91.363281 21.847656 C 91.324219 21.902344 91.253906 21.996094 91.148438 22.125 C 91.042969 22.253906 90.929688 22.390625 90.816406 22.53125 C 90.699219 22.671875 90.597656 22.785156 90.519531 22.878906 C 90.316406 23.105469 90.121094 23.261719 89.929688 23.34375 C 89.738281 23.425781 89.53125 23.46875 89.3125 23.46875 Z M 97.464844 21.722656 C 97.234375 21.722656 96.996094 21.722656 96.753906 21.71875 C 96.515625 21.714844 96.246094 21.714844 95.945312 21.714844 C 95.648438 21.714844 95.382812 21.714844 95.152344 21.71875 C 94.917969 21.722656 94.679688 21.722656 94.4375 21.722656 C 94.414062 21.652344 94.414062 21.578125 94.4375 21.511719 C 94.710938 21.503906 94.914062 21.488281 95.042969 21.46875 C 95.167969 21.449219 95.253906 21.402344 95.296875 21.332031 C 95.335938 21.265625 95.355469 21.15625 95.355469 21.003906 L 95.355469 17.5625 C 95.355469 17.417969 95.335938 17.3125 95.289062 17.238281 C 95.246094 17.171875 95.152344 17.121094 95.011719 17.089844 C 94.871094 17.0625 94.660156 17.035156 94.378906 17.027344 C 94.355469 16.964844 94.355469 16.902344 94.378906 16.839844 C 94.699219 16.816406 95.03125 16.78125 95.367188 16.734375 C 95.703125 16.683594 96.050781 16.613281 96.40625 16.53125 L 96.609375 16.574219 C 96.601562 16.671875 96.59375 16.785156 96.589844 16.917969 C 96.585938 17.042969 96.585938 17.183594 96.585938 17.332031 L 96.585938 20.933594 C 96.585938 21.113281 96.601562 21.238281 96.640625 21.316406 C 96.675781 21.394531 96.757812 21.449219 96.878906 21.46875 C 97.003906 21.488281 97.203125 21.503906 97.464844 21.511719 C 97.484375 21.578125 97.484375 21.652344 97.464844 21.722656 Z M 98.597656 20.628906 C 98.722656 20.933594 98.914062 21.167969 99.179688 21.324219 C 99.445312 21.480469 99.785156 21.558594 100.203125 21.558594 C 100.519531 21.558594 100.78125 21.515625 101 21.433594 C 101.214844 21.347656 101.324219 21.214844 101.324219 21.03125 C 101.324219 20.894531 101.269531 20.78125 101.148438 20.703125 C 101.035156 20.621094 100.875 20.546875 100.667969 20.488281 C 100.464844 20.433594 100.230469 20.375 99.976562 20.316406 C 99.675781 20.246094 99.398438 20.171875 99.136719 20.09375 C 98.875 20.011719 98.664062 19.910156 98.496094 19.792969 C 98.332031 19.667969 98.25 19.511719 98.25 19.316406 C 98.25 19.097656 98.351562 18.917969 98.558594 18.777344 C 98.761719 18.628906 99.03125 18.519531 99.351562 18.449219 C 99.679688 18.375 100.027344 18.339844 100.398438 18.339844 C 100.582031 18.339844 100.765625 18.34375 100.953125 18.359375 C 101.136719 18.371094 101.238281 18.378906 101.253906 18.378906 C 101.414062 18.390625 101.5625 18.402344 101.703125 18.402344 C 101.835938 18.40625 101.90625 18.40625 101.914062 18.40625 C 101.921875 18.40625 101.941406 18.40625 101.96875 18.40625 C 102 18.40625 102.039062 18.402344 102.085938 18.402344 C 102.085938 18.546875 102.089844 18.691406 102.097656 18.84375 C 102.105469 18.996094 102.121094 19.15625 102.144531 19.328125 C 102.136719 19.328125 102.121094 19.328125 102.097656 19.328125 C 102.023438 19.332031 101.957031 19.332031 101.898438 19.339844 C 101.835938 19.339844 101.78125 19.339844 101.726562 19.332031 C 101.617188 19.078125 101.464844 18.890625 101.261719 18.777344 C 101.054688 18.65625 100.765625 18.597656 100.398438 18.597656 C 100.066406 18.597656 99.804688 18.640625 99.605469 18.722656 C 99.410156 18.800781 99.3125 18.917969 99.3125 19.066406 C 99.3125 19.183594 99.375 19.28125 99.503906 19.359375 C 99.632812 19.433594 99.789062 19.496094 99.976562 19.546875 C 100.160156 19.597656 100.339844 19.640625 100.503906 19.675781 C 100.820312 19.746094 101.117188 19.824219 101.402344 19.90625 C 101.6875 19.988281 101.921875 20.097656 102.101562 20.234375 C 102.285156 20.363281 102.375 20.546875 102.375 20.769531 C 102.375 21.011719 102.269531 21.203125 102.054688 21.359375 C 101.84375 21.511719 101.570312 21.625 101.242188 21.691406 C 100.914062 21.765625 100.566406 21.800781 100.203125 21.800781 C 99.996094 21.800781 99.789062 21.792969 99.582031 21.769531 C 99.375 21.753906 99.265625 21.746094 99.25 21.746094 C 99.234375 21.746094 99.167969 21.738281 99.054688 21.730469 C 98.933594 21.722656 98.808594 21.714844 98.667969 21.703125 C 98.527344 21.691406 98.402344 21.691406 98.296875 21.691406 C 98.296875 21.546875 98.289062 21.390625 98.265625 21.214844 C 98.25 21.042969 98.226562 20.847656 98.203125 20.640625 C 98.21875 20.640625 98.238281 20.640625 98.261719 20.640625 C 98.335938 20.636719 98.398438 20.628906 98.449219 20.628906 C 98.503906 20.625 98.550781 20.625 98.597656 20.628906 Z M 98.597656 20.628906 "/>
</g>
</svg>
